<svg xmlns="http://www.w3.org/2000/svg" xmlns:xlink="http://www.w3.org/1999/xlink" id="visual" version="1.1" viewBox="0 0 2500 101"><rect x="0" y="0" width="2500" height="100" fill="#FFAACF"/><path d="M0 6L46.3 14.7C92.7 23.3 185.3 40.7 278 53C370.7 65.3 463.3 72.7 555.8 65.8C648.3 59 740.7 38 833.2 37.3C925.7 36.7 1018.3 56.3 1111 67.3C1203.7 78.3 1296.3 80.7 1389 68.5C1481.7 56.3 1574.3 29.7 1666.8 28C1759.3 26.3 1851.7 49.7 1944.2 54.3C2036.7 59 2129.3 45 2222 45.3C2314.7 45.7 2407.3 60.3 2453.7 67.7L2500 75L2500 101L2453.7 101C2407.3 101 2314.7 101 2222 101C2129.3 101 2036.7 101 1944.2 101C1851.7 101 1759.3 101 1666.8 101C1574.3 101 1481.7 101 1389 101C1296.3 101 1203.7 101 1111 101C1018.3 101 925.7 101 833.2 101C740.7 101 648.3 101 555.8 101C463.3 101 370.7 101 278 101C185.3 101 92.7 101 46.3 101L0 101Z" fill="#B9F3E4" stroke-linecap="round" stroke-linejoin="miter"/></svg>